<svg xmlns="http://www.w3.org/2000/svg" viewBox="0 0 512 512">
  <defs>
    <linearGradient id="bg" x1="0%" y1="0%" x2="100%" y2="100%">
      <stop offset="0%" stop-color="#f9fbff" />
      <stop offset="100%" stop-color="#dce5f5" />
    </linearGradient>
    <linearGradient id="halo" x1="0%" y1="0%" x2="100%" y2="100%">
      <stop offset="0%" stop-color="#96b4e6" stop-opacity="0.8" />
      <stop offset="100%" stop-color="#ead8bd" stop-opacity="0.9" />
    </linearGradient>
  </defs>
  <rect width="512" height="512" rx="126" fill="url(#bg)" />
  <circle cx="380" cy="126" r="96" fill="url(#halo)" opacity="0.9" />
  <circle cx="152" cy="386" r="116" fill="#ffffff" opacity="0.68" />
  <path
    d="M247 126c31 0 56 25 56 56s-25 56-56 56-56-25-56-56 25-56 56-56Zm0 136c56 0 101 45 101 101v46c0 12-10 22-22 22h-158c-12 0-22-10-22-22v-46c0-56 45-101 101-101Z"
    fill="#2f3748"
    opacity="0.94"
  />
  <path
    d="M324 188c25 15 42 42 42 72 0 30-16 57-42 72"
    fill="none"
    stroke="#96b4e6"
    stroke-linecap="round"
    stroke-width="18"
  />
  <path
    d="M184 188c-25 15-42 42-42 72 0 30 16 57 42 72"
    fill="none"
    stroke="#97c1b1"
    stroke-linecap="round"
    stroke-width="18"
  />
  <path
    d="M243 96c31 0 59 18 73 46"
    fill="none"
    stroke="#ffffff"
    stroke-linecap="round"
    stroke-width="16"
    opacity="0.9"
  />
</svg>
